# xmcd
#
# Track frame offsets:
#	150
#	14991
#	29055
#	44235
#	55246
#	69553
#	80407
#	99733
#	113619
#	123657
#	137029
#	150742
#	163783
#	179004
#	190038
#	203628
#	216469
#	230056
#	237745
#	255122
#	265357
#	277422
#	293888
#	304722
#
# Disc length: 4239 seconds
#
# Revision: 1
# Processed by: cddbd v1.4PL0 Copyright (c) Steve Scherf et al.
# Submitted via: audiograbber 1.80
#
DISCID=82108d18
DTITLE=Milionário and José Rico - Vol 3
DYEAR=1900
DGENRE=
TTITLE0=Livro Da Vida
TTITLE1=A Fossa
TTITLE2=Todos Tem O Mesmo Fim
TTITLE3=Meu Desespero
TTITLE4=Nossa Casa
TTITLE5=Quem Vai Te Deixar Sou Eu
TTITLE6=Sonho Alto
TTITLE7=O Nosso Filho
TTITLE8=O Preço De Um Pecado
TTITLE9=Cinzeiro Cheio
TTITLE10=Vá Pro Inferno Com Seu Amor
TTITLE11=Mundo Cruel
TTITLE12=Jogo Do Amor
TTITLE13=Lágrimas Que Choram
TTITLE14=Onde Está Meu Bem
TTITLE15=Recordando A Infância
TTITLE16=Vida Cor De Rosa
TTITLE17=Tortura Do Destino
TTITLE18=Mensagem Do Além
TTITLE19=Martírio De Dor
TTITLE20=Amor Com Amor Se Paga
TTITLE21=Jamais Quero Te Ver
TTITLE22=Tudo Passa
TTITLE23=Opnião
EXTD=
EXTT0=
EXTT1=
EXTT2=
EXTT3=
EXTT4=
EXTT5=
EXTT6=
EXTT7=
EXTT8=
EXTT9=
EXTT10=
EXTT11=
EXTT12=
EXTT13=
EXTT14=
EXTT15=
EXTT16=
EXTT17=
EXTT18=
EXTT19=
EXTT20=
EXTT21=
EXTT22=
EXTT23=
PLAYORDER=
